<svg width="58" height="61" viewBox="0 0 58 61" fill="none" xmlns="http://www.w3.org/2000/svg">
<g clip-path="url(#clip0_457_280)">
<path d="M57.9693 31.0613C57.9693 28.6031 57.772 26.8093 57.345 24.9491H29.5776V36.044H45.8764C45.548 38.8013 43.7735 42.9537 39.8301 45.7439L39.7748 46.1153L48.5544 52.9908L49.1626 53.0522C54.7489 47.8368 57.9693 40.1632 57.9693 31.0613Z" fill="#4285F4"/>
<path d="M29.5777 60.2939C37.5628 60.2939 44.2663 57.6363 49.1627 53.0522L39.8302 45.7439C37.3328 47.5045 33.981 48.7336 29.5777 48.7336C21.7569 48.7336 15.1191 43.5184 12.7529 36.3099L12.4061 36.3397L3.27698 43.4818L3.15759 43.8172C8.02094 53.5835 18.0106 60.2939 29.5777 60.2939Z" fill="#34A853"/>
<path d="M12.7529 36.3099C12.1286 34.4497 11.7672 32.4564 11.7672 30.3969C11.7672 28.3373 12.1286 26.3442 12.7201 24.484L12.7035 24.0878L3.46004 16.831L3.15761 16.9764C1.15319 21.0292 0.00305176 25.5802 0.00305176 30.3969C0.00305176 35.2137 1.15319 39.7645 3.15761 43.8173L12.7529 36.3099Z" fill="#FBBC05"/>
<path d="M29.5777 12.0601C35.1311 12.0601 38.8772 14.485 41.0132 16.5115L49.3598 8.27321C44.2337 3.45649 37.5628 0.5 29.5777 0.5C18.0106 0.5 8.02094 7.21015 3.15759 16.9764L12.72 24.484C15.1191 17.2755 21.7569 12.0601 29.5777 12.0601Z" fill="#EB4335"/>
</g>
<defs>
<clipPath id="clip0_457_280">
<rect width="58" height="60" fill="white" transform="translate(0 0.5)"/>
</clipPath>
</defs>
</svg>
