<svg width="450" height="90" viewBox="0 0 450 90" fill="none" xmlns="http://www.w3.org/2000/svg">
<path d="M15.4688 56.5312H39.5313" stroke="white" stroke-width="3" stroke-linecap="round" stroke-linejoin="round"/>
<path d="M15.4688 49.6563V42.7813L31.1573 28.2134C31.3544 28.0304 31.6609 28.036 31.8511 28.2262L36.8989 33.274C37.0891 33.4641 37.0947 33.7707 36.9117 33.9677L22.3438 49.6563H15.4688Z" stroke="white" stroke-width="3" stroke-linecap="round" stroke-linejoin="round"/>
<path d="M84.5685 21.7585H81.4663C81.3469 21.0956 81.1249 20.5123 80.8001 20.0085C80.4753 19.5047 80.0775 19.0772 79.6069 18.7259C79.1362 18.3745 78.6093 18.1094 78.0259 17.9304C77.4492 17.7514 76.8361 17.6619 76.1864 17.6619C75.0131 17.6619 73.9625 17.9569 73.0344 18.5469C72.113 19.1368 71.3839 20.0019 70.8469 21.142C70.3166 22.2822 70.0515 23.6742 70.0515 25.3182C70.0515 26.9754 70.3166 28.3741 70.8469 29.5142C71.3839 30.6544 72.1164 31.5161 73.0444 32.0994C73.9724 32.6828 75.0165 32.9744 76.1765 32.9744C76.8195 32.9744 77.4293 32.8883 78.006 32.7159C78.5894 32.5369 79.1164 32.2751 79.587 31.9304C80.0576 31.5857 80.4554 31.1648 80.7802 30.6676C81.1116 30.1638 81.3403 29.5871 81.4663 28.9375L84.5685 28.9474C84.4028 29.9484 84.0813 30.8698 83.604 31.7116C83.1334 32.5469 82.5269 33.2694 81.7844 33.8793C81.0487 34.4825 80.2068 34.9498 79.2589 35.2812C78.311 35.6127 77.2769 35.7784 76.1566 35.7784C74.3933 35.7784 72.8223 35.3608 71.4435 34.5256C70.0647 33.6837 68.9776 32.4806 68.1822 30.9162C67.3933 29.3518 66.9989 27.4858 66.9989 25.3182C66.9989 23.1439 67.3967 21.2779 68.1921 19.7202C68.9876 18.1558 70.0747 16.956 71.4535 16.1207C72.8323 15.2789 74.4 14.858 76.1566 14.858C77.2371 14.858 78.2447 15.0137 79.1793 15.3253C80.1206 15.6302 80.9658 16.081 81.7148 16.6776C82.4639 17.2675 83.0837 17.9901 83.5742 18.8452C84.0647 19.6937 84.3962 20.6648 84.5685 21.7585ZM88.0064 35.5V20.2273H94.3402C96.0637 20.2273 97.4292 20.5952 98.4368 21.331C99.4444 22.0601 99.9482 23.0511 99.9482 24.304C99.9482 25.1989 99.6631 25.9081 99.093 26.4318C98.523 26.9555 97.7673 27.3068 96.826 27.4858C97.5088 27.5653 98.1352 27.7708 98.7053 28.1023C99.2753 28.4271 99.7327 28.8646 100.077 29.4148C100.429 29.965 100.604 30.6212 100.604 31.3835C100.604 32.1922 100.396 32.9081 99.978 33.5312C99.5604 34.1477 98.9538 34.6316 98.1584 34.983C97.3696 35.3277 96.4183 35.5 95.3047 35.5H88.0064ZM90.8004 33.0142H95.3047C96.0405 33.0142 96.6172 32.8385 97.0348 32.4872C97.4524 32.1359 97.6612 31.6586 97.6612 31.0554C97.6612 30.3461 97.4524 29.7893 97.0348 29.3849C96.6172 28.974 96.0405 28.7685 95.3047 28.7685H90.8004V33.0142ZM90.8004 26.5909H94.37C94.9268 26.5909 95.4041 26.5114 95.8018 26.3523C96.2062 26.1932 96.5144 25.9678 96.7266 25.6761C96.9453 25.3778 97.0547 25.0265 97.0547 24.6222C97.0547 24.0322 96.8127 23.5715 96.3288 23.2401C95.8449 22.9086 95.1821 22.7429 94.3402 22.7429H90.8004V26.5909ZM110.299 35.8082C108.867 35.8082 107.618 35.4801 106.55 34.8239C105.483 34.1676 104.655 33.2495 104.065 32.0696C103.475 30.8897 103.18 29.5109 103.18 27.9332C103.18 26.349 103.475 24.9635 104.065 23.777C104.655 22.5904 105.483 21.669 106.55 21.0128C107.618 20.3565 108.867 20.0284 110.299 20.0284C111.731 20.0284 112.98 20.3565 114.048 21.0128C115.115 21.669 115.943 22.5904 116.533 23.777C117.123 24.9635 117.418 26.349 117.418 27.9332C117.418 29.5109 117.123 30.8897 116.533 32.0696C115.943 33.2495 115.115 34.1676 114.048 34.8239C112.98 35.4801 111.731 35.8082 110.299 35.8082ZM110.309 33.3125C111.237 33.3125 112.006 33.0672 112.616 32.5767C113.226 32.0862 113.676 31.4332 113.968 30.6179C114.266 29.8026 114.415 28.9044 114.415 27.9233C114.415 26.9489 114.266 26.054 113.968 25.2386C113.676 24.4167 113.226 23.7571 112.616 23.2599C112.006 22.7628 111.237 22.5142 110.309 22.5142C109.374 22.5142 108.599 22.7628 107.982 23.2599C107.372 23.7571 106.918 24.4167 106.62 25.2386C106.328 26.054 106.183 26.9489 106.183 27.9233C106.183 28.9044 106.328 29.8026 106.62 30.6179C106.918 31.4332 107.372 32.0862 107.982 32.5767C108.599 33.0672 109.374 33.3125 110.309 33.3125ZM132.52 14.5398L133.752 16.419C133.295 16.8366 132.775 17.1349 132.191 17.3139C131.615 17.4863 130.949 17.5956 130.193 17.642C129.437 17.6818 128.572 17.7183 127.598 17.7514C126.497 17.7846 125.592 18.0232 124.883 18.4673C124.174 18.9048 123.627 19.5545 123.243 20.4162C122.865 21.2713 122.619 22.3452 122.507 23.6378H122.696C123.193 22.6899 123.882 21.9806 124.764 21.5099C125.652 21.0393 126.65 20.804 127.757 20.804C128.99 20.804 130.087 21.0857 131.048 21.6491C132.009 22.2126 132.765 23.0379 133.315 24.125C133.872 25.2055 134.15 26.5279 134.15 28.0923C134.15 29.6766 133.859 31.0455 133.275 32.1989C132.699 33.3523 131.883 34.2438 130.829 34.8736C129.782 35.4967 128.546 35.8082 127.12 35.8082C125.695 35.8082 124.452 35.4867 123.392 34.8438C122.338 34.1941 121.519 33.233 120.936 31.9602C120.359 30.6875 120.071 29.1165 120.071 27.2472V25.7358C120.071 22.2424 120.694 19.6141 121.94 17.8509C123.186 16.0876 125.049 15.1828 127.528 15.1364C128.33 15.1165 129.046 15.1132 129.676 15.1264C130.306 15.133 130.856 15.1032 131.326 15.0369C131.804 14.964 132.201 14.7983 132.52 14.5398ZM127.13 33.3125C127.959 33.3125 128.672 33.1037 129.268 32.6861C129.871 32.2618 130.335 31.6619 130.66 30.8864C130.985 30.1108 131.147 29.196 131.147 28.142C131.147 27.108 130.985 26.2296 130.66 25.5071C130.335 24.7846 129.871 24.2344 129.268 23.8565C128.665 23.4721 127.942 23.2798 127.1 23.2798C126.477 23.2798 125.921 23.3892 125.43 23.608C124.94 23.8201 124.519 24.1349 124.167 24.5526C123.823 24.9702 123.554 25.4806 123.362 26.0838C123.176 26.6804 123.077 27.3665 123.064 28.142C123.064 29.7197 123.425 30.9759 124.147 31.9105C124.877 32.8452 125.871 33.3125 127.13 33.3125ZM143.904 35.8082C142.473 35.8082 141.223 35.4801 140.156 34.8239C139.089 34.1676 138.26 33.2495 137.67 32.0696C137.08 30.8897 136.785 29.5109 136.785 27.9332C136.785 26.349 137.08 24.9635 137.67 23.777C138.26 22.5904 139.089 21.669 140.156 21.0128C141.223 20.3565 142.473 20.0284 143.904 20.0284C145.336 20.0284 146.586 20.3565 147.653 21.0128C148.72 21.669 149.549 22.5904 150.139 23.777C150.729 24.9635 151.024 26.349 151.024 27.9332C151.024 29.5109 150.729 30.8897 150.139 32.0696C149.549 33.2495 148.72 34.1676 147.653 34.8239C146.586 35.4801 145.336 35.8082 143.904 35.8082ZM143.914 33.3125C144.842 33.3125 145.611 33.0672 146.221 32.5767C146.831 32.0862 147.282 31.4332 147.574 30.6179C147.872 29.8026 148.021 28.9044 148.021 27.9233C148.021 26.9489 147.872 26.054 147.574 25.2386C147.282 24.4167 146.831 23.7571 146.221 23.2599C145.611 22.7628 144.842 22.5142 143.914 22.5142C142.98 22.5142 142.204 22.7628 141.588 23.2599C140.978 23.7571 140.524 24.4167 140.225 25.2386C139.934 26.054 139.788 26.9489 139.788 27.9233C139.788 28.9044 139.934 29.8026 140.225 30.6179C140.524 31.4332 140.978 32.0862 141.588 32.5767C142.204 33.0672 142.98 33.3125 143.914 33.3125ZM152.851 39.9048V32.9247H154.094C154.412 32.633 154.68 32.285 154.899 31.8807C155.125 31.4763 155.313 30.9957 155.466 30.4389C155.625 29.8821 155.758 29.2325 155.864 28.4901C155.97 27.741 156.062 26.8859 156.142 25.9247L156.619 20.2273H167V32.9247H169.347V39.9048H166.443V35.5H155.794V39.9048H152.851ZM157.276 32.9247H164.097V22.7727H159.284L158.966 25.9247C158.813 27.5289 158.621 28.9209 158.389 30.1009C158.157 31.2741 157.786 32.2154 157.276 32.9247ZM182.603 26.581V29.1562H174.331V26.581H182.603ZM175.166 20.2273V35.5H172.252V20.2273H175.166ZM184.681 20.2273V35.5H181.778V20.2273H184.681ZM190.896 25.4773H195.331C197.2 25.4773 198.638 25.9413 199.646 26.8693C200.654 27.7973 201.157 28.9938 201.157 30.4588C201.157 31.4134 200.932 32.2718 200.481 33.0341C200.03 33.7964 199.371 34.3996 198.502 34.8438C197.634 35.2812 196.577 35.5 195.331 35.5H188.659V20.2273H191.572V32.9347H195.331C196.186 32.9347 196.888 32.7126 197.439 32.2685C197.989 31.8177 198.264 31.2443 198.264 30.5483C198.264 29.8125 197.989 29.2126 197.439 28.7486C196.888 28.2779 196.186 28.0426 195.331 28.0426H190.896V25.4773ZM203.325 35.5V20.2273H206.298V35.5H203.325ZM213.201 31.3338L219.933 20.2273H223.134V35.5H220.221V24.3835L213.519 35.5H210.288V20.2273H213.201V31.3338ZM218.66 15.0568H221.106C221.106 16.1771 220.708 17.0885 219.913 17.7912C219.124 18.4872 218.057 18.8352 216.711 18.8352C215.372 18.8352 214.308 18.4872 213.519 17.7912C212.73 17.0885 212.336 16.1771 212.336 15.0568H214.772C214.772 15.554 214.918 15.9948 215.21 16.3793C215.501 16.7571 216.002 16.946 216.711 16.946C217.407 16.946 217.904 16.7571 218.202 16.3793C218.507 16.0014 218.66 15.5606 218.66 15.0568ZM240.975 35.8082C239.543 35.8082 238.293 35.4801 237.226 34.8239C236.159 34.1676 235.33 33.2495 234.74 32.0696C234.15 30.8897 233.855 29.5109 233.855 27.9332C233.855 26.349 234.15 24.9635 234.74 23.777C235.33 22.5904 236.159 21.669 237.226 21.0128C238.293 20.3565 239.543 20.0284 240.975 20.0284C242.407 20.0284 243.656 20.3565 244.723 21.0128C245.791 21.669 246.619 22.5904 247.209 23.777C247.799 24.9635 248.094 26.349 248.094 27.9332C248.094 29.5109 247.799 30.8897 247.209 32.0696C246.619 33.2495 245.791 34.1676 244.723 34.8239C243.656 35.4801 242.407 35.8082 240.975 35.8082ZM240.985 33.3125C241.913 33.3125 242.682 33.0672 243.292 32.5767C243.901 32.0862 244.352 31.4332 244.644 30.6179C244.942 29.8026 245.091 28.9044 245.091 27.9233C245.091 26.9489 244.942 26.054 244.644 25.2386C244.352 24.4167 243.901 23.7571 243.292 23.2599C242.682 22.7628 241.913 22.5142 240.985 22.5142C240.05 22.5142 239.275 22.7628 238.658 23.2599C238.048 23.7571 237.594 24.4167 237.296 25.2386C237.004 26.054 236.858 26.9489 236.858 27.9233C236.858 28.9044 237.004 29.8026 237.296 30.6179C237.594 31.4332 238.048 32.0862 238.658 32.5767C239.275 33.0672 240.05 33.3125 240.985 33.3125ZM249.573 22.7926V20.2273H262.46V22.7926H257.478V35.5H254.575V22.7926H249.573ZM265.604 35.5V20.2273H271.938C273.661 20.2273 275.027 20.5952 276.034 21.331C277.042 22.0601 277.546 23.0511 277.546 24.304C277.546 25.1989 277.261 25.9081 276.691 26.4318C276.121 26.9555 275.365 27.3068 274.424 27.4858C275.106 27.5653 275.733 27.7708 276.303 28.1023C276.873 28.4271 277.33 28.8646 277.675 29.4148C278.026 29.965 278.202 30.6212 278.202 31.3835C278.202 32.1922 277.993 32.9081 277.576 33.5312C277.158 34.1477 276.551 34.6316 275.756 34.983C274.967 35.3277 274.016 35.5 272.902 35.5H265.604ZM268.398 33.0142H272.902C273.638 33.0142 274.215 32.8385 274.632 32.4872C275.05 32.1359 275.259 31.6586 275.259 31.0554C275.259 30.3461 275.05 29.7893 274.632 29.3849C274.215 28.974 273.638 28.7685 272.902 28.7685H268.398V33.0142ZM268.398 26.5909H271.968C272.525 26.5909 273.002 26.5114 273.4 26.3523C273.804 26.1932 274.112 25.9678 274.324 25.6761C274.543 25.3778 274.652 25.0265 274.652 24.6222C274.652 24.0322 274.41 23.5715 273.926 23.2401C273.443 22.9086 272.78 22.7429 271.938 22.7429H268.398V26.5909ZM288.046 35.8082C286.541 35.8082 285.245 35.4867 284.158 34.8438C283.078 34.1941 282.242 33.2827 281.652 32.1094C281.069 30.9295 280.777 29.5473 280.777 27.9631C280.777 26.3987 281.069 25.0199 281.652 23.8267C282.242 22.6335 283.064 21.7022 284.118 21.0327C285.179 20.3632 286.418 20.0284 287.837 20.0284C288.699 20.0284 289.534 20.1709 290.343 20.456C291.151 20.741 291.877 21.1884 292.52 21.7983C293.163 22.4081 293.67 23.2003 294.042 24.1747C294.413 25.1425 294.598 26.3191 294.598 27.7045V28.7585H282.458V26.5312H291.685C291.685 25.7491 291.526 25.0563 291.208 24.4531C290.89 23.8433 290.442 23.3627 289.865 23.0114C289.295 22.66 288.626 22.4844 287.857 22.4844C287.022 22.4844 286.292 22.6899 285.669 23.1009C285.053 23.5052 284.576 24.0355 284.238 24.6918C283.906 25.3414 283.74 26.0473 283.74 26.8097V28.5497C283.74 29.5705 283.919 30.4389 284.277 31.1548C284.642 31.8707 285.149 32.4176 285.799 32.7955C286.448 33.1667 287.207 33.3523 288.076 33.3523C288.639 33.3523 289.153 33.2727 289.617 33.1136C290.081 32.9479 290.482 32.7027 290.82 32.3778C291.158 32.053 291.417 31.652 291.596 31.1747L294.409 31.6818C294.184 32.5104 293.78 33.2363 293.196 33.8594C292.62 34.4759 291.894 34.9564 291.019 35.3011C290.15 35.6392 289.159 35.8082 288.046 35.8082ZM296.55 22.7926V20.2273H309.436V22.7926H304.455V35.5H301.551V22.7926H296.55Z" fill="white"/>
<path d="M67.4652 75.5V58.0455H69.5788V65.8182H78.8857V58.0455H80.9993V75.5H78.8857V67.6932H69.5788V75.5H67.4652ZM88.8104 75.8068C87.9808 75.8068 87.228 75.6506 86.5518 75.3381C85.8757 75.0199 85.3388 74.5625 84.9411 73.9659C84.5433 73.3636 84.3445 72.6364 84.3445 71.7841C84.3445 71.0341 84.4922 70.4261 84.7876 69.9602C85.0831 69.4886 85.478 69.1193 85.9723 68.8523C86.4666 68.5852 87.0121 68.3864 87.6087 68.2557C88.2109 68.1193 88.8161 68.0114 89.424 67.9318C90.2195 67.8295 90.8643 67.7528 91.3587 67.7017C91.8587 67.6449 92.2223 67.5511 92.4496 67.4205C92.6825 67.2898 92.799 67.0625 92.799 66.7386V66.6705C92.799 65.8295 92.5689 65.1761 92.1087 64.7102C91.6541 64.2443 90.9638 64.0114 90.0376 64.0114C89.0774 64.0114 88.3246 64.2216 87.7791 64.642C87.2337 65.0625 86.8501 65.5114 86.6286 65.9886L84.7195 65.3068C85.0604 64.5114 85.5149 63.892 86.0831 63.4489C86.657 63 87.282 62.6875 87.9581 62.5114C88.6399 62.3295 89.3104 62.2386 89.9695 62.2386C90.3899 62.2386 90.8729 62.2898 91.4183 62.392C91.9695 62.4886 92.5007 62.6903 93.0121 62.9972C93.5291 63.304 93.9581 63.767 94.299 64.3864C94.6399 65.0057 94.8104 65.8352 94.8104 66.875V75.5H92.799V73.7273H92.6967C92.5604 74.0114 92.3331 74.3153 92.0149 74.6392C91.6967 74.9631 91.2734 75.2386 90.745 75.4659C90.2166 75.6932 89.5717 75.8068 88.8104 75.8068ZM89.1172 74C89.9126 74 90.5831 73.8438 91.1286 73.5312C91.6797 73.2188 92.0945 72.8153 92.3729 72.321C92.657 71.8267 92.799 71.3068 92.799 70.7614V68.9205C92.7138 69.0227 92.5263 69.1165 92.2365 69.2017C91.9524 69.2812 91.6229 69.3523 91.2479 69.4148C90.8786 69.4716 90.5178 69.5227 90.1655 69.5682C89.8189 69.608 89.5376 69.642 89.3217 69.6705C88.799 69.7386 88.3104 69.8494 87.8558 70.0028C87.407 70.1506 87.0433 70.375 86.7649 70.6761C86.4922 70.9716 86.3558 71.375 86.3558 71.8864C86.3558 72.5852 86.6143 73.1136 87.1314 73.4716C87.6541 73.8239 88.3161 74 89.1172 74ZM98.4815 75.5V62.4091H108.777V75.5H106.766V64.2841H100.493V75.5H98.4815ZM114.462 72.5341L120.768 62.4091H123.087V75.5H121.075V65.375L114.803 75.5H112.45V62.4091H114.462V72.5341ZM126.771 62.4091H128.782V73.625H133.725V62.4091H135.737V73.625H140.68V62.4091H142.691V75.5H126.771V62.4091ZM148.376 72.5341L154.683 62.4091H157.001V75.5H154.989V65.375L148.717 75.5H146.364V62.4091H148.376V72.5341ZM158.903 64.2841V62.4091H169.54V64.2841H165.244V75.5H163.233V64.2841H158.903ZM177.283 75.7727C176.021 75.7727 174.933 75.4943 174.018 74.9375C173.109 74.375 172.408 73.5909 171.913 72.5852C171.425 71.5739 171.18 70.3977 171.18 69.0568C171.18 67.7159 171.425 66.5341 171.913 65.5114C172.408 64.483 173.095 63.6818 173.976 63.108C174.862 62.5284 175.896 62.2386 177.078 62.2386C177.76 62.2386 178.433 62.3523 179.098 62.5795C179.763 62.8068 180.368 63.1761 180.913 63.6875C181.459 64.1932 181.893 64.8636 182.217 65.6989C182.541 66.5341 182.703 67.5625 182.703 68.7841V69.6364H172.612V67.8977H180.658C180.658 67.1591 180.51 66.5 180.214 65.9205C179.925 65.3409 179.51 64.8835 178.97 64.5483C178.436 64.2131 177.805 64.0455 177.078 64.0455C176.277 64.0455 175.584 64.2443 174.999 64.642C174.419 65.0341 173.973 65.5455 173.661 66.1761C173.348 66.8068 173.192 67.483 173.192 68.2045V69.3636C173.192 70.3523 173.362 71.1903 173.703 71.8778C174.05 72.5597 174.53 73.0795 175.143 73.4375C175.757 73.7898 176.47 73.9659 177.283 73.9659C177.811 73.9659 178.288 73.892 178.714 73.7443C179.146 73.5909 179.518 73.3636 179.831 73.0625C180.143 72.7557 180.385 72.375 180.555 71.9205L182.499 72.4659C182.294 73.125 181.95 73.7045 181.467 74.2045C180.984 74.6989 180.388 75.0852 179.678 75.3636C178.967 75.6364 178.169 75.7727 177.283 75.7727ZM197.831 75.7727C196.649 75.7727 195.612 75.4915 194.72 74.929C193.834 74.3665 193.141 73.5795 192.641 72.5682C192.146 71.5568 191.899 70.375 191.899 69.0227C191.899 67.6591 192.146 66.4687 192.641 65.4517C193.141 64.4347 193.834 63.6449 194.72 63.0824C195.612 62.5199 196.649 62.2386 197.831 62.2386C199.013 62.2386 200.047 62.5199 200.933 63.0824C201.825 63.6449 202.518 64.4347 203.013 65.4517C203.513 66.4687 203.763 67.6591 203.763 69.0227C203.763 70.375 203.513 71.5568 203.013 72.5682C202.518 73.5795 201.825 74.3665 200.933 74.929C200.047 75.4915 199.013 75.7727 197.831 75.7727ZM197.831 73.9659C198.729 73.9659 199.467 73.7358 200.047 73.2756C200.626 72.8153 201.055 72.2102 201.334 71.4602C201.612 70.7102 201.751 69.8977 201.751 69.0227C201.751 68.1477 201.612 67.3324 201.334 66.5767C201.055 65.821 200.626 65.2102 200.047 64.7443C199.467 64.2784 198.729 64.0455 197.831 64.0455C196.933 64.0455 196.195 64.2784 195.615 64.7443C195.036 65.2102 194.607 65.821 194.328 66.5767C194.05 67.3324 193.911 68.1477 193.911 69.0227C193.911 69.8977 194.05 70.7102 194.328 71.4602C194.607 72.2102 195.036 72.8153 195.615 73.2756C196.195 73.7358 196.933 73.9659 197.831 73.9659ZM205.122 64.2841V62.4091H215.759V64.2841H211.463V75.5H209.452V64.2841H205.122ZM218.692 75.5V62.4091H224.045C225.454 62.4091 226.573 62.7273 227.403 63.3636C228.232 64 228.647 64.8409 228.647 65.8864C228.647 66.6818 228.411 67.2983 227.94 67.7358C227.468 68.1676 226.863 68.4602 226.124 68.6136C226.607 68.6818 227.076 68.8523 227.531 69.125C227.991 69.3977 228.371 69.7727 228.673 70.25C228.974 70.7216 229.124 71.3011 229.124 71.9886C229.124 72.6591 228.954 73.2585 228.613 73.7869C228.272 74.3153 227.783 74.733 227.147 75.0398C226.511 75.3466 225.749 75.5 224.863 75.5H218.692ZM220.602 73.6591H224.863C225.556 73.6591 226.099 73.4943 226.491 73.1648C226.883 72.8352 227.079 72.3864 227.079 71.8182C227.079 71.142 226.883 70.6108 226.491 70.2244C226.099 69.8324 225.556 69.6364 224.863 69.6364H220.602V73.6591ZM220.602 67.8977H224.045C224.585 67.8977 225.048 67.8239 225.434 67.6761C225.82 67.5227 226.116 67.3068 226.32 67.0284C226.531 66.7443 226.636 66.4091 226.636 66.0227C226.636 65.4716 226.406 65.0398 225.945 64.7273C225.485 64.4091 224.852 64.25 224.045 64.25H220.602V67.8977ZM237.658 75.7727C236.396 75.7727 235.308 75.4943 234.393 74.9375C233.484 74.375 232.783 73.5909 232.288 72.5852C231.8 71.5739 231.555 70.3977 231.555 69.0568C231.555 67.7159 231.8 66.5341 232.288 65.5114C232.783 64.483 233.47 63.6818 234.351 63.108C235.237 62.5284 236.271 62.2386 237.453 62.2386C238.135 62.2386 238.808 62.3523 239.473 62.5795C240.138 62.8068 240.743 63.1761 241.288 63.6875C241.834 64.1932 242.268 64.8636 242.592 65.6989C242.916 66.5341 243.078 67.5625 243.078 68.7841V69.6364H232.987V67.8977H241.033C241.033 67.1591 240.885 66.5 240.589 65.9205C240.3 65.3409 239.885 64.8835 239.345 64.5483C238.811 64.2131 238.18 64.0455 237.453 64.0455C236.652 64.0455 235.959 64.2443 235.374 64.642C234.794 65.0341 234.348 65.5455 234.036 66.1761C233.723 66.8068 233.567 67.483 233.567 68.2045V69.3636C233.567 70.3523 233.737 71.1903 234.078 71.8778C234.425 72.5597 234.905 73.0795 235.518 73.4375C236.132 73.7898 236.845 73.9659 237.658 73.9659C238.186 73.9659 238.663 73.892 239.089 73.7443C239.521 73.5909 239.893 73.3636 240.206 73.0625C240.518 72.7557 240.76 72.375 240.93 71.9205L242.874 72.4659C242.669 73.125 242.325 73.7045 241.842 74.2045C241.359 74.6989 240.763 75.0852 240.053 75.3636C239.342 75.6364 238.544 75.7727 237.658 75.7727ZM244.919 64.2841V62.4091H255.555V64.2841H251.26V75.5H249.249V64.2841H244.919Z" fill="white"/>
</svg>
