<svg width="201" height="160" viewBox="0 0 201 160" fill="none" xmlns="http://www.w3.org/2000/svg">
<path d="M30.7545 78.4423L24.5465 69.9282V31.1426H27.9675V68.6444L32.4648 74.7935H48.492V78.4423H30.7545ZM56.347 63.1714V71.2799L60.718 74.7935H75.8583L79.8493 71.2119L82.1298 74.05L76.9985 78.4423H59.6415L52.9263 73.1716V51.414L59.5778 46.2108H76.9985L83.08 51.4815V63.1714H56.347ZM79.6593 53.1706L75.8583 49.7244H60.718L56.347 53.3058V59.7252H79.6593V53.1706ZM105.062 78.4423H100.184L88.1475 63.9143V46.1434H91.5683V62.4954L101.641 74.7935H103.478L112.853 62.698V46.1434H116.211V63.982L105.062 78.4423ZM124.699 63.1714V71.2799L129.07 74.7935H144.211L148.201 71.2119L150.482 74.05L145.351 78.4423H127.994L121.278 73.1716V51.414L127.93 46.2108H145.351L151.432 51.4815V63.1714H124.699ZM148.011 53.1706L144.211 49.7244H129.07L124.699 53.3058V59.7252H148.011V53.1706Z" fill="white" stroke="white" stroke-width="2"/>
<path d="M112.633 131.904V128.931L108.895 131.904H94.3887L87.6735 126.633V99.6724H91.0942V124.606L95.4652 128.255H108.198L112.633 124.606V99.6724H115.99V131.904H112.633ZM146.397 131.904H129.42L125.619 128.931V146.904H122.325V99.6724H125.619V103.727L129.737 99.605H146.397L152.415 104.876V126.633L146.397 131.904ZM149.121 106.632L145.193 103.186H130.75L125.619 108.456V124.876L130.053 128.255H145.193L149.121 124.876V106.632Z" fill="white" stroke="white" stroke-width="2"/>
<path d="M191.462 43.2613L188.068 24.5101L176.166 5.31384H172.548L160.527 24.5101L157.886 43.5853M174.365 6.49411L174.598 127.011L153.235 151.605H116.136" stroke="white" stroke-width="6" stroke-miterlimit="22.9256"/>
</svg>
