<svg width="211" height="56" viewBox="0 0 211 56" fill="none" xmlns="http://www.w3.org/2000/svg">
<rect width="211" height="56" rx="6" fill="#F5F5F5"/>
<rect x="8.5" y="8.5" width="39" height="39" rx="4.5" fill="#F5F5F5"/>
<path d="M13 29.2L22.3103 40L43 16" stroke="black" stroke-width="4" stroke-linecap="round" stroke-linejoin="round"/>
<rect x="8.5" y="8.5" width="39" height="39" rx="4.5" stroke="black"/>
<path d="M58.5069 38V17.6364H60.9728V26.7045H71.8308V17.6364H74.2967V38H71.8308V28.892H60.9728V38H58.5069ZM85.3187 38.3182C83.8471 38.3182 82.5777 37.9934 81.5105 37.3438C80.4499 36.6875 79.6312 35.7727 79.0545 34.5994C78.4844 33.4195 78.1994 32.0473 78.1994 30.483C78.1994 28.9186 78.4844 27.5398 79.0545 26.3466C79.6312 25.1468 80.4333 24.2121 81.4608 23.5426C82.4949 22.8665 83.7013 22.5284 85.0801 22.5284C85.8755 22.5284 86.661 22.661 87.4366 22.9261C88.2122 23.1913 88.9181 23.6222 89.5545 24.2188C90.1909 24.8087 90.698 25.5909 91.0758 26.5653C91.4537 27.5398 91.6426 28.7396 91.6426 30.1648V31.1591H79.8699V29.1307H89.2562C89.2562 28.2689 89.0839 27.5 88.7392 26.8239C88.4011 26.1477 87.9172 25.6141 87.2875 25.223C86.6644 24.8319 85.9286 24.6364 85.0801 24.6364C84.1454 24.6364 83.3367 24.8684 82.6539 25.3324C81.9778 25.7898 81.4574 26.3864 81.0929 27.1222C80.7283 27.858 80.546 28.6468 80.546 29.4886V30.8409C80.546 31.9943 80.7449 32.9721 81.1426 33.7741C81.5469 34.5696 82.1071 35.1761 82.823 35.5938C83.5389 36.0047 84.3708 36.2102 85.3187 36.2102C85.9352 36.2102 86.492 36.1241 86.9892 35.9517C87.493 35.7727 87.9271 35.5076 88.2917 35.1562C88.6563 34.7983 88.938 34.3542 89.1369 33.8239L91.4039 34.4602C91.1653 35.2292 90.7643 35.9053 90.2008 36.4886C89.6374 37.0653 88.9413 37.5161 88.1127 37.8409C87.2842 38.1591 86.3528 38.3182 85.3187 38.3182ZM101.417 38.3182C99.9849 38.3182 98.752 37.9801 97.7179 37.304C96.6838 36.6278 95.8883 35.6965 95.3315 34.5099C94.7747 33.3234 94.4963 31.9678 94.4963 30.4432C94.4963 28.892 94.7813 27.5232 95.3514 26.3366C95.9281 25.1435 96.7302 24.2121 97.7576 23.5426C98.7917 22.8665 99.9982 22.5284 101.377 22.5284C102.451 22.5284 103.419 22.7273 104.28 23.125C105.142 23.5227 105.848 24.0795 106.398 24.7955C106.948 25.5114 107.29 26.3466 107.422 27.3011H105.076C104.897 26.6051 104.499 25.9886 103.883 25.4517C103.273 24.9081 102.451 24.6364 101.417 24.6364C100.502 24.6364 99.6999 24.875 99.0105 25.3523C98.3277 25.8229 97.7941 26.4891 97.4096 27.3509C97.0318 28.206 96.8429 29.2102 96.8429 30.3636C96.8429 31.5436 97.0285 32.571 97.3997 33.446C97.7775 34.321 98.3078 35.0005 98.9906 35.4844C99.68 35.9683 100.489 36.2102 101.417 36.2102C102.027 36.2102 102.58 36.1042 103.077 35.892C103.574 35.6799 103.995 35.375 104.34 34.9773C104.685 34.5795 104.93 34.1023 105.076 33.5455H107.422C107.29 34.447 106.962 35.259 106.438 35.9815C105.921 36.6974 105.235 37.2675 104.38 37.6918C103.531 38.1094 102.544 38.3182 101.417 38.3182ZM110.853 38V22.7273H113.199V29.3693H114.751L120.239 22.7273H123.262L117.097 30.0852L123.341 38H120.319L115.307 31.5568H113.199V38H110.853ZM131.468 38.3182C130.089 38.3182 128.879 37.9901 127.838 37.3338C126.804 36.6776 125.995 35.7595 125.412 34.5795C124.835 33.3996 124.547 32.0208 124.547 30.4432C124.547 28.8523 124.835 27.4635 125.412 26.277C125.995 25.0904 126.804 24.169 127.838 23.5128C128.879 22.8565 130.089 22.5284 131.468 22.5284C132.846 22.5284 134.053 22.8565 135.087 23.5128C136.128 24.169 136.936 25.0904 137.513 26.277C138.096 27.4635 138.388 28.8523 138.388 30.4432C138.388 32.0208 138.096 33.3996 137.513 34.5795C136.936 35.7595 136.128 36.6776 135.087 37.3338C134.053 37.9901 132.846 38.3182 131.468 38.3182ZM131.468 36.2102C132.515 36.2102 133.377 35.9418 134.053 35.4048C134.729 34.8679 135.229 34.1619 135.554 33.2869C135.879 32.4119 136.041 31.464 136.041 30.4432C136.041 29.4223 135.879 28.4711 135.554 27.5895C135.229 26.7079 134.729 25.9953 134.053 25.4517C133.377 24.9081 132.515 24.6364 131.468 24.6364C130.42 24.6364 129.558 24.9081 128.882 25.4517C128.206 25.9953 127.706 26.7079 127.381 27.5895C127.056 28.4711 126.894 29.4223 126.894 30.4432C126.894 31.464 127.056 32.4119 127.381 33.2869C127.706 34.1619 128.206 34.8679 128.882 35.4048C129.558 35.9418 130.42 36.2102 131.468 36.2102ZM140.618 38V35.8125H141.175C141.632 35.8125 142.013 35.723 142.318 35.544C142.623 35.3584 142.868 35.0369 143.054 34.5795C143.246 34.1155 143.392 33.4725 143.491 32.6506C143.597 31.822 143.674 30.768 143.72 29.4886L143.998 22.7273H154.18V38H151.834V24.9148H146.226L145.987 30.3636C145.934 31.6165 145.821 32.7202 145.649 33.6747C145.483 34.6226 145.228 35.4181 144.883 36.0611C144.545 36.7041 144.095 37.188 143.531 37.5128C142.968 37.8376 142.262 38 141.413 38H140.618ZM160.514 28.2557H164.889C166.679 28.2557 168.048 28.7098 168.996 29.6179C169.943 30.526 170.417 31.6761 170.417 33.0682C170.417 33.983 170.205 34.8149 169.781 35.5639C169.357 36.3063 168.734 36.8996 167.912 37.3438C167.09 37.7812 166.082 38 164.889 38H158.486V22.7273H160.832V35.8125H164.889C165.817 35.8125 166.579 35.5672 167.176 35.0767C167.773 34.5862 168.071 33.9564 168.071 33.1875C168.071 32.3788 167.773 31.7192 167.176 31.2088C166.579 30.6984 165.817 30.4432 164.889 30.4432H160.514V28.2557ZM173.99 38V22.7273H176.336V29.3693H177.887L183.376 22.7273H186.399L180.234 30.0852L186.478 38H183.455L178.444 31.5568H176.336V38H173.99ZM194.604 38.3182C193.225 38.3182 192.016 37.9901 190.975 37.3338C189.941 36.6776 189.132 35.7595 188.549 34.5795C187.972 33.3996 187.684 32.0208 187.684 30.4432C187.684 28.8523 187.972 27.4635 188.549 26.277C189.132 25.0904 189.941 24.169 190.975 23.5128C192.016 22.8565 193.225 22.5284 194.604 22.5284C195.983 22.5284 197.189 22.8565 198.224 23.5128C199.264 24.169 200.073 25.0904 200.65 26.277C201.233 27.4635 201.525 28.8523 201.525 30.4432C201.525 32.0208 201.233 33.3996 200.65 34.5795C200.073 35.7595 199.264 36.6776 198.224 37.3338C197.189 37.9901 195.983 38.3182 194.604 38.3182ZM194.604 36.2102C195.652 36.2102 196.513 35.9418 197.189 35.4048C197.866 34.8679 198.366 34.1619 198.691 33.2869C199.016 32.4119 199.178 31.464 199.178 30.4432C199.178 29.4223 199.016 28.4711 198.691 27.5895C198.366 26.7079 197.866 25.9953 197.189 25.4517C196.513 24.9081 195.652 24.6364 194.604 24.6364C193.557 24.6364 192.695 24.9081 192.019 25.4517C191.343 25.9953 190.842 26.7079 190.518 27.5895C190.193 28.4711 190.03 29.4223 190.03 30.4432C190.03 31.464 190.193 32.4119 190.518 33.2869C190.842 34.1619 191.343 34.8679 192.019 35.4048C192.695 35.9418 193.557 36.2102 194.604 36.2102Z" fill="black"/>
</svg>
