<svg width="136" height="56" viewBox="0 0 136 56" fill="none" xmlns="http://www.w3.org/2000/svg">
<rect width="136" height="56" rx="6" fill="#CCCCCC"/>
<path d="M28 13C30.9667 13 33.8668 13.8797 36.3336 15.528C38.8003 17.1762 40.7229 19.5189 41.8582 22.2597C42.9935 25.0006 43.2906 28.0166 42.7118 30.9264C42.133 33.8361 40.7044 36.5088 38.6066 38.6066C36.5088 40.7044 33.8361 42.133 30.9264 42.7118C28.0166 43.2906 25.0006 42.9935 22.2598 41.8582C19.5189 40.7229 17.1762 38.8003 15.528 36.3336C13.8797 33.8668 13 30.9667 13 28C13 24.0218 14.5804 20.2064 17.3934 17.3934C20.2065 14.5804 24.0218 13 28 13ZM28 10.5C24.5388 10.5 21.1554 11.5264 18.2775 13.4493C15.3997 15.3722 13.1566 18.1053 11.8321 21.303C10.5076 24.5007 10.161 28.0194 10.8363 31.4141C11.5115 34.8087 13.1782 37.9269 15.6256 40.3744C18.0731 42.8218 21.1913 44.4885 24.5859 45.1637C27.9806 45.839 31.4993 45.4924 34.697 44.1679C37.8947 42.8434 40.6278 40.6003 42.5507 37.7225C44.4737 34.8446 45.5 31.4612 45.5 28C45.5 23.3587 43.6563 18.9075 40.3744 15.6256C37.0925 12.3437 32.6413 10.5 28 10.5Z" fill="black"/>
<path d="M28 18C26.0222 18 24.0888 18.5865 22.4443 19.6853C20.7998 20.7841 19.5181 22.3459 18.7612 24.1732C18.0043 26.0004 17.8063 28.0111 18.1922 29.9509C18.578 31.8907 19.5304 33.6725 20.9289 35.0711C22.3275 36.4696 24.1093 37.422 26.0491 37.8078C27.9889 38.1937 29.9996 37.9957 31.8268 37.2388C33.6541 36.4819 35.2159 35.2002 36.3147 33.5557C37.4135 31.9112 38 29.9778 38 28C38 25.3478 36.9464 22.8043 35.0711 20.9289C33.1957 19.0536 30.6522 18 28 18Z" fill="black"/>
<path d="M75.7454 27.8182C75.7454 29.9659 75.3576 31.822 74.582 33.3864C73.8065 34.9508 72.7425 36.1572 71.3903 37.0057C70.038 37.8542 68.4935 38.2784 66.7567 38.2784C65.02 38.2784 63.4755 37.8542 62.1232 37.0057C60.771 36.1572 59.707 34.9508 58.9315 33.3864C58.1559 31.822 57.7681 29.9659 57.7681 27.8182C57.7681 25.6705 58.1559 23.8144 58.9315 22.25C59.707 20.6856 60.771 19.4792 62.1232 18.6307C63.4755 17.7822 65.02 17.358 66.7567 17.358C68.4935 17.358 70.038 17.7822 71.3903 18.6307C72.7425 19.4792 73.8065 20.6856 74.582 22.25C75.3576 23.8144 75.7454 25.6705 75.7454 27.8182ZM73.359 27.8182C73.359 26.0549 73.064 24.5668 72.4741 23.3537C71.8907 22.1406 71.0986 21.2225 70.0977 20.5994C69.1033 19.9763 67.9897 19.6648 66.7567 19.6648C65.5238 19.6648 64.4068 19.9763 63.4059 20.5994C62.4116 21.2225 61.6194 22.1406 61.0295 23.3537C60.4461 24.5668 60.1545 26.0549 60.1545 27.8182C60.1545 29.5814 60.4461 31.0696 61.0295 32.2827C61.6194 33.4957 62.4116 34.4138 63.4059 35.0369C64.4068 35.66 65.5238 35.9716 66.7567 35.9716C67.9897 35.9716 69.1033 35.66 70.0977 35.0369C71.0986 34.4138 71.8907 33.4957 72.4741 32.2827C73.064 31.0696 73.359 29.5814 73.359 27.8182ZM77.9428 42.375V35.8125H79.2156C79.5271 35.4877 79.7956 35.1364 80.021 34.7585C80.2463 34.3807 80.4419 33.9332 80.6076 33.4162C80.7799 32.8925 80.9258 32.2562 81.0451 31.5071C81.1644 30.7514 81.2705 29.84 81.3633 28.7727L81.8803 22.7273H91.5849V35.8125H93.9315V42.375H91.5849V38H80.2894V42.375H77.9428ZM81.8803 35.8125H89.2383V24.9148H84.0678L83.6701 28.7727C83.5044 30.3703 83.2989 31.7656 83.0536 32.9588C82.8084 34.152 82.4173 35.1032 81.8803 35.8125ZM99.3928 34.5398L106.751 22.7273H109.455V38H107.109V26.1875L99.7905 38H97.0462V22.7273H99.3928V34.5398ZM123.975 29.2898V31.4773H115.543V29.2898H123.975ZM116.1 22.7273V38H113.753V22.7273H116.1ZM125.765 22.7273V38H123.418V22.7273H125.765Z" fill="black"/>
</svg>
