<svg width="40" height="40" viewBox="0 0 40 40" fill="none" xmlns="http://www.w3.org/2000/svg">
<path d="M20 5C22.9667 5 25.8668 5.87973 28.3336 7.52796C30.8003 9.17618 32.7229 11.5189 33.8582 14.2597C34.9935 17.0006 35.2906 20.0166 34.7118 22.9264C34.133 25.8361 32.7044 28.5088 30.6066 30.6066C28.5088 32.7044 25.8361 34.133 22.9264 34.7118C20.0166 35.2906 17.0006 34.9935 14.2598 33.8582C11.5189 32.7229 9.17618 30.8003 7.52796 28.3336C5.87974 25.8668 5.00001 22.9667 5.00001 20C5.00001 16.0218 6.58036 12.2064 9.39341 9.3934C12.2065 6.58035 16.0218 5 20 5ZM20 2.5C16.5388 2.5 13.1554 3.52636 10.2775 5.44928C7.39967 7.37221 5.15665 10.1053 3.83212 13.303C2.50758 16.5007 2.16102 20.0194 2.83627 23.4141C3.51151 26.8087 5.17822 29.9269 7.62564 32.3744C10.0731 34.8218 13.1913 36.4885 16.5859 37.1637C19.9806 37.839 23.4993 37.4924 26.697 36.1679C29.8947 34.8434 32.6278 32.6003 34.5507 29.7225C36.4737 26.8446 37.5 23.4612 37.5 20C37.5 15.3587 35.6563 10.9075 32.3744 7.62563C29.0925 4.34374 24.6413 2.5 20 2.5Z" fill="#34A853"/>
<path d="M20 10C18.0222 10 16.0888 10.5865 14.4443 11.6853C12.7998 12.7841 11.5181 14.3459 10.7612 16.1732C10.0043 18.0004 9.8063 20.0111 10.1922 21.9509C10.578 23.8907 11.5304 25.6725 12.9289 27.0711C14.3275 28.4696 16.1093 29.422 18.0491 29.8078C19.9889 30.1937 21.9996 29.9957 23.8268 29.2388C25.6541 28.4819 27.2159 27.2002 28.3147 25.5557C29.4135 23.9112 30 21.9778 30 20C30 17.3478 28.9464 14.8043 27.0711 12.9289C25.1957 11.0536 22.6522 10 20 10Z" fill="#34A853"/>
</svg>
